<?xml version="1.0" standalone="no"?>
<!DOCTYPE svg PUBLIC "-//W3C//DTD SVG 20010904//EN"
 "http://www.w3.org/TR/2001/REC-SVG-20010904/DTD/svg10.dtd">
<svg version="1.0" xmlns="http://www.w3.org/2000/svg"
 width="512.000000pt" height="512.000000pt" viewBox="0 0 512.000000 512.000000"
 preserveAspectRatio="xMidYMid meet">
<metadata>
Created by potrace 1.11, written by Peter Selinger 2001-2013
</metadata>
<g transform="translate(0.000000,512.000000) scale(0.100000,-0.100000)"
fill="#000000" stroke="none">
<path d="M2509 5026 c-2 -2 -31 -6 -65 -9 -401 -37 -834 -211 -1154 -466 -82
-66 -104 -85 -202 -184 -244 -245 -429 -546 -542 -887 -38 -116 -36 -106 -71
-275 -34 -168 -40 -234 -40 -445 0 -210 5 -262 41 -445 21 -107 19 -98 48
-196 31 -107 54 -168 107 -284 12 -27 22 -57 21 -65 -1 -14 -42 -118 -83 -207
-10 -24 -19 -45 -19 -48 0 -3 -9 -24 -19 -48 -11 -23 -47 -109 -81 -192 -34
-82 -65 -159 -70 -170 -42 -89 -80 -194 -80 -218 0 -34 43 -77 77 -77 20 0
167 22 228 34 11 2 56 9 100 16 44 6 91 13 105 16 14 2 41 7 60 10 19 3 87 14
150 24 63 10 133 21 155 25 22 3 66 10 97 15 l56 11 114 -75 c223 -146 512
-270 728 -312 14 -3 41 -9 60 -14 19 -5 58 -12 85 -15 28 -4 57 -8 65 -10 30
-8 207 -19 305 -19 116 0 254 10 340 24 33 6 76 13 95 16 159 27 395 106 576
195 594 291 1018 819 1183 1474 73 288 86 636 36 925 -8 47 -17 99 -20 115 -3
17 -8 37 -11 45 -3 8 -8 26 -10 39 -10 52 -69 222 -111 321 -90 209 -218 416
-363 584 -32 37 -188 193 -226 226 -79 69 -247 190 -263 190 -5 0 -11 4 -13 8
-1 4 -25 21 -53 37 -258 150 -548 251 -840 291 -22 3 -51 8 -65 11 -29 6 -425
14 -431 9z m489 -1280 c17 -3 47 -8 65 -11 103 -17 272 -93 372 -167 187 -140
314 -326 376 -555 25 -93 35 -353 18 -473 -21 -147 -94 -328 -174 -436 -120
-159 -299 -289 -480 -347 -142 -46 -184 -48 -747 -50 -296 0 -540 2 -544 6
-10 9 -11 2036 -2 2040 17 5 1085 -1 1116 -7z"/>
<path d="M2420 3301 l-30 -29 0 -542 0 -542 28 -28 28 -28 185 2 c229 3 283
16 416 99 202 125 316 383 269 607 -47 226 -246 428 -466 474 -37 8 -137 14
-233 15 l-168 2 -29 -30z"/>
</g>
</svg>
